Coordinates
version=1
nRows=17
nColumns=20
inDegrees=yes

Units are S.I. units (second, meters, Newtons, ...)
Angles are in degrees.

endheader
time	pelvis_tilt	pelvis_list	pelvis_rotation	pelvis_tx	pelvis_ty	pelvis_tz	hip_flexion_r	hip_adduction_r	hip_rotation_r	knee_angle_r	ankle_angle_r	hip_flexion_l	hip_adduction_l	hip_rotation_l	knee_angle_l	ankle_angle_l	lumbar_extension	lumbar_bending	lumbar_rotation
      1.25000000	      4.65279853	     -4.28036829	     -4.35003377	      0.57918033	      1.01377600	      0.04525301	    -21.15685066	      4.43564989	      3.05609518	     -8.64047283	     14.03376502	     19.06006711	     -5.42567954	     -4.49371263	     -3.53209654	     -0.75859141	    -16.84875136	      2.28277601	      4.48712261
      1.26700000	      4.51034825	     -4.01562350	     -4.39938555	      0.58131191	      1.01242737	      0.04338420	    -21.34049198	      3.95504945	      3.17197345	    -10.45313308	     14.25642487	     19.61525090	     -4.95251292	     -4.01951930	     -6.11137375	     -1.52481073	    -16.38618927	      1.72183438	      4.29894215
      1.28300000	      4.29435818	     -4.13330377	     -4.60680436	      0.58225172	      1.01144604	      0.04202587	    -20.98069083	      3.86290506	      3.47742622	    -13.07472856	     14.28160116	     20.18007406	     -4.98155424	     -3.76698359	     -8.68491110	     -2.63533825	    -16.15854143	      1.42180307	      4.23892333
      1.30000000	      4.18492832	     -3.96242298	     -4.83661725	      0.58475888	      1.01122837	      0.04043389	    -20.78389635	      3.42522094	      3.63075248	    -15.60569927	     13.78485555	     20.52639512	     -4.74174287	     -3.77219117	    -11.33878237	     -3.48373812	    -15.77924274	      0.73231193	      4.13981174
      1.31700000	      4.31424634	     -3.67700566	     -5.02368169	      0.58777279	      1.01186644	      0.03860072	    -20.28448227	      2.87814131	      3.65348245	    -19.14861476	     12.98280106	     20.44390439	     -4.37338796	     -3.93896946	    -13.77649552	     -4.00593065	    -15.60837991	     -0.02991857	      3.84428068
      1.33300000	      4.51093559	     -3.40505386	     -5.07472684	      0.59093540	      1.01301726	      0.03654592	    -19.33677173	      2.37650422	      3.33643627	    -23.52094837	     11.59566705	     20.12638710	     -3.97785638	     -4.01398831	    -15.97929889	     -4.09400997	    -15.45009480	     -0.73503584	      3.61314219
      1.35000000	      4.95714989	     -3.03355957	     -4.98559396	      0.59426742	      1.01494206	      0.03394776	    -18.11190264	      1.69964934	      2.47276504	    -28.61723695	      9.32172499	     19.29466707	     -3.39825641	     -4.04397274	    -17.77801840	     -3.82525650	    -15.51623738	     -1.46661803	      3.25321097
      1.36700000	      5.25040636	     -2.60130959	     -4.75212324	      0.59731391	      1.01680743	      0.03060146	    -16.11726892	      0.82150894	      1.01297673	    -34.41420664	      6.00903100	     18.40090251	     -2.69205229	     -4.02406548	    -19.13164009	     -3.28674781	    -15.47725937	     -2.13940740	      2.69342807
      1.38300000	      5.41735276	     -2.05055255	     -4.61149377	      0.59969464	      1.01856852	      0.02695454	    -13.44727470	     -0.47715988	     -0.75707511	    -40.60455282	      1.82527129	     17.38223923	     -1.86697378	     -4.13550665	    -19.96413231	     -2.55407689	    -15.41673138	     -2.83497504	      2.35248426
      1.40000000	      5.49791876	     -1.47964895	     -4.45059002	      0.60132704	      1.02028544	      0.02338921	    -10.46213405	     -1.99631863	     -2.55131699	    -46.55160486	     -2.72098254	     16.34860393	     -1.00223312	     -4.18835214	    -20.53858545	     -1.61548179	    -15.23287624	     -3.51083115	      1.68248767
      1.41700000	      5.74145819	     -0.89128883	     -4.37775854	      0.60266571	      1.02278837	      0.01967463	     -7.69265177	     -3.67687364	     -4.00947566	    -51.79406581	     -6.66094022	     14.76576285	     -0.06905772	     -4.34366245	    -20.36279796	     -0.75887822	    -15.37345123	     -4.15268802	      1.27702981
      1.43300000	      5.88411930	     -0.23589595	     -4.54352507	      0.60248906	      1.02499307	      0.01632516	     -4.64244730	     -5.32612839	     -4.68565250	    -56.77294473	     -8.75814721	     13.25483376	      0.89410770	     -4.66032685	    -19.95295159	      0.04675489	    -15.45613640	     -4.82052782	      0.96306879
      1.45000000	      6.06206496	      0.20213233	     -4.70190414	      0.60201459	      1.02761591	      0.01301014	     -1.77815920	     -6.51170318	     -4.86713115	    -61.04067831	     -8.86949996	     11.64415381	      1.66531628	     -4.87669504	    -19.41462808	      0.82462458	    -15.49430645	     -5.17901924	      0.66125848
      1.46700000	      6.10279186	      0.10314331	     -4.16952157	      0.60245122	      1.03089035	      0.00950971	      0.66656647	     -6.78892568	     -5.44911413	    -64.15731468	     -7.57387216	     10.01738814	      1.95726088	     -4.31617367	    -18.68279055	      1.54228157	    -15.47609767	     -4.83683637	     -0.33059380
      1.48300000	      6.31488144	      0.06487052	     -3.91315361	      0.60155993	      1.03425236	      0.00683115	      3.06951652	     -6.91406576	     -5.51829679	    -66.81009814	     -5.50126304	      8.09380489	      2.23131115	     -4.01429724	    -17.56795208	      2.02193766	    -15.64549223	     -4.61829905	     -0.98465902
      1.50000000	      6.25342088	     -0.14326796	     -3.39651995	      0.60043812	      1.03693041	      0.00412389	      5.57726146	     -6.64967905	     -5.71900111	    -68.64275923	     -3.36362639	      6.60682430	      2.30041035	     -3.38888104	    -16.71127342	      2.57991510	    -15.65580904	     -4.18931174	     -1.82318643
      1.51700000	      6.28692598	     -0.47906303	     -2.73204573	      0.59911843	      1.03957734	      0.00167950	      7.79440589	     -6.16419344	     -6.08572356	    -69.59427745	     -1.55592979	      4.89141590	      2.19960393	     -2.61999431	    -15.56358370	      3.01008281	    -15.73929323	     -3.54689556	     -2.64867236
